<svg xmlns="http://www.w3.org/2000/svg" viewBox="0 0 89.67 182.31"><defs><style>.cls-1{fill:#793611;}.cls-2{fill:#4d4d4d;}.cls-3,.cls-4,.cls-5,.cls-6,.cls-7,.cls-8{stroke:#333;}.cls-3,.cls-4,.cls-5,.cls-6,.cls-7{stroke-linejoin:round;}.cls-3{stroke-width:0.52px;}.cls-4{stroke-width:0.65px;}.cls-5{stroke-width:0.63px;}.cls-6{stroke-width:0.53px;}.cls-7{stroke-width:0.31px;}.cls-11,.cls-12,.cls-13,.cls-8{fill:none;stroke-miterlimit:10;}.cls-8{stroke-linecap:round;stroke-width:0.75px;}.cls-9{fill:#070606;}.cls-10{fill:#c4605e;}.cls-11,.cls-12{stroke:#070606;}.cls-11{stroke-width:1.4px;}.cls-12{stroke-width:1.46px;}.cls-13{stroke:#000;stroke-width:1.27px;}</style></defs><title>john_svg</title><g id="Layer_2" data-name="Layer 2"><g id="Layer_1-2" data-name="Layer 1"><path class="cls-1" d="M42.84,76h0A17.48,17.48,0,0,1,60.32,93.5v22.91A11.32,11.32,0,0,1,49,127.74H36.68a11.32,11.32,0,0,1-11.32-11.32V93.5A17.48,17.48,0,0,1,42.84,76Z"/><rect class="cls-1" x="-6.98" y="99.3" width="52.4" height="12.74" rx="6.37" ry="6.37" transform="translate(-81.9 69.48) rotate(-60)"/><rect class="cls-1" x="39.58" y="98.53" width="56" height="12.74" rx="6.37" ry="6.37" transform="translate(114.3 -10.81) rotate(54.78)"/><path d="M.41,95.05H36.9a5.78,5.78,0,0,1,5.78,5.78V102a5.78,5.78,0,0,1-5.78,5.78H.41a0,0,0,0,1,0,0V95.05A0,0,0,0,1,.41,95.05Z" transform="translate(-77.07 69.37) rotate(-60)"/><path d="M43,93.21h35.9a6.37,6.37,0,0,1,6.37,6.37v0A6.37,6.37,0,0,1,78.85,106H43a0,0,0,0,1,0,0V93.21A0,0,0,0,1,43,93.21Z" transform="translate(18.25 208.77) rotate(-124.46)"/><path class="cls-2" d="M39.79,175.45s-1.85,1.32-7.22,1.4c-5,.07-7.28-1.4-7.28-1.4V117.57h14.5Z"/><path class="cls-2" d="M60.36,175.36s-1.85,1.32-7.22,1.39c-5,.07-7.28-1.39-7.28-1.39v-57.8h14.5Z"/><rect class="cls-2" x="27.51" y="117.63" width="26.21" height="10.02"/><path d="M60.32,124h-35s-1.86-3.07-1.86-4.66c0-2.56,1.43-7.77,1.76-10.37.54-4.18.1-16.86.1-16.86A16.94,16.94,0,0,1,42.25,75.23h1.18A16.94,16.94,0,0,1,60.32,92.12s-.5,11.46.18,15.2c.48,2.64,2.51,9.4,2.36,11.92C62.73,121.18,60.32,124,60.32,124Z"/><path class="cls-3" d="M37,109H48.3a5.06,5.06,0,0,0,4.51,5.14L50.56,118l-15.75-.2-1.59-4.08S37.74,114,37,109Z"/><path class="cls-4" d="M27.72,74.85l-3.43,8.78s12.89,5,18.85,4.53C43.14,88.16,30.9,81,27.72,74.85Z"/><path class="cls-5" d="M58,75.43l3.32,8.4S48.82,88.6,43,88.16C43,88.16,54.91,81.35,58,75.43Z"/><rect class="cls-6" x="24.08" y="121" width="3.76" height="3.09"/><rect class="cls-6" x="27.91" y="121" width="3.76" height="3.09"/><rect class="cls-6" x="31.69" y="121.04" width="3.76" height="3.09"/><rect class="cls-6" x="35.52" y="121.04" width="3.76" height="3.09"/><rect class="cls-6" x="39.33" y="121.04" width="3.76" height="3.09"/><rect class="cls-6" x="43.15" y="121.04" width="3.76" height="3.09"/><rect class="cls-6" x="46.89" y="121.04" width="3.76" height="3.09"/><rect class="cls-6" x="50.72" y="121.04" width="3.76" height="3.09"/><rect class="cls-6" x="54.53" y="121.04" width="3.76" height="3.09"/><rect class="cls-6" x="58.35" y="121.04" width="3.76" height="3.09"/><rect class="cls-7" x="5.14" y="115.68" width="1.27" height="3.09" transform="translate(60.16 13.22) rotate(30.43)"/><rect class="cls-7" x="6.26" y="116.33" width="1.27" height="3.09" transform="translate(60.65 12.74) rotate(30.43)"/><rect class="cls-7" x="7.34" y="117.01" width="1.27" height="3.09" transform="translate(61.14 12.29) rotate(30.43)"/><rect class="cls-7" x="8.45" y="117.66" width="1.27" height="3.09" transform="translate(61.62 11.81) rotate(30.43)"/><rect class="cls-7" x="9.56" y="118.32" width="1.27" height="3.09" transform="translate(62.11 11.34) rotate(30.43)"/><rect class="cls-7" x="10.68" y="118.97" width="1.27" height="3.09" transform="translate(62.59 10.87) rotate(30.43)"/><rect class="cls-7" x="11.77" y="119.61" width="1.27" height="3.09" transform="translate(63.07 10.41) rotate(30.43)"/><rect class="cls-7" x="12.88" y="120.26" width="1.27" height="3.09" transform="translate(63.55 9.93) rotate(30.43)"/><rect class="cls-7" x="13.99" y="120.92" width="1.27" height="3.09" transform="translate(64.03 9.46) rotate(30.43)"/><rect class="cls-7" x="15.11" y="121.57" width="1.27" height="3.09" transform="translate(64.52 8.98) rotate(30.43)"/><rect class="cls-7" x="71.5" y="119.94" width="1.27" height="3.09" transform="translate(-56.44 62.92) rotate(-34.81)"/><rect class="cls-7" x="72.56" y="119.2" width="1.27" height="3.09" transform="translate(-55.83 63.4) rotate(-34.81)"/><rect class="cls-7" x="73.63" y="118.5" width="1.27" height="3.09" transform="translate(-55.24 63.88) rotate(-34.81)"/><rect class="cls-7" x="74.69" y="117.76" width="1.27" height="3.09" transform="translate(-54.63 64.36) rotate(-34.81)"/><rect class="cls-7" x="75.75" y="117.03" width="1.27" height="3.09" transform="translate(-54.02 64.83) rotate(-34.81)"/><rect class="cls-7" x="76.81" y="116.29" width="1.27" height="3.09" transform="translate(-53.41 65.3) rotate(-34.81)"/><rect class="cls-7" x="77.85" y="115.57" width="1.27" height="3.09" transform="translate(-52.81 65.76) rotate(-34.81)"/><rect class="cls-7" x="78.91" y="114.83" width="1.27" height="3.09" transform="translate(-52.2 66.24) rotate(-34.81)"/><rect class="cls-7" x="79.97" y="114.1" width="1.27" height="3.09" transform="translate(-51.59 66.71) rotate(-34.81)"/><rect class="cls-7" x="81.03" y="113.36" width="1.27" height="3.09" transform="translate(-50.98 67.18) rotate(-34.81)"/><path d="M39.88,174.08s-7.21,1.49-14.52-4.32c0,0-7.7,6.28-9.72,8.77a5,5,0,0,0-.65,3.07c.13,1.32,24.41.37,24.41.37S42.08,179.88,39.88,174.08Z"/><path class="cls-8" d="M25.09,174.57a3.46,3.46,0,0,0-2.33-2.6"/><path class="cls-8" d="M23.71,175.13a2.74,2.74,0,0,0-2.08-1.94"/><path class="cls-8" d="M22,175.88a2.26,2.26,0,0,0-1.78-1.56"/><path d="M45.84,174.08s7.21,1.49,14.52-4.32c0,0,7.7,6.28,9.72,8.77a5,5,0,0,1,.65,3.07c-.13,1.32-24.41.37-24.41.37S43.63,179.88,45.84,174.08Z"/><path class="cls-8" d="M60.62,174.57a3.46,3.46,0,0,1,2.33-2.6"/><path class="cls-8" d="M62,175.13a2.74,2.74,0,0,1,2.08-1.94"/><path class="cls-8" d="M63.7,175.88a2.26,2.26,0,0,1,1.78-1.56"/></g><g id="Layer_4" data-name="Layer 4"><ellipse class="cls-1" cx="7.94" cy="46.47" rx="7.87" ry="9.82" transform="translate(-8.22 2.18) rotate(-10.35)"/><ellipse class="cls-1" cx="81.72" cy="48.07" rx="9.82" ry="7.87" transform="translate(19.75 119.83) rotate(-79.65)"/><path class="cls-1" d="M80.73,45.33c0,9.56,1.25,21.74-4.8,28.21-6.62,7.09-21,8-31.46,8-10.73,0-24.93-1.3-31.57-8.71C7.16,66.45,8.22,54.62,8.22,45.33a36.25,36.25,0,0,1,72.5,0Z"/><ellipse class="cls-9" cx="41.14" cy="14.08" rx="24.33" ry="13.61" transform="translate(-1.86 7.62) rotate(-10.35)"/><ellipse class="cls-9" cx="67.89" cy="19.56" rx="10.22" ry="15.55" transform="translate(7.84 56.79) rotate(-47.87)"/><ellipse class="cls-9" cx="20.53" cy="19.05" rx="15.55" ry="10.22" transform="translate(-7.24 15.4) rotate(-35.38)"/><ellipse class="cls-9" cx="80.27" cy="33.28" rx="6.33" ry="9.62" transform="matrix(0.95, -0.31, 0.31, 0.95, -6.36, 26.52)"/><ellipse class="cls-9" cx="9.53" cy="32.32" rx="9.62" ry="6.33" transform="translate(-24.08 29.87) rotate(-69.42)"/><circle class="cls-10" cx="19.17" cy="62.49" r="7.17"/><circle class="cls-10" cx="69.13" cy="62.49" r="7.17"/><rect class="cls-9" x="43.05" y="48.61" width="0.88" height="7.41"/><path class="cls-11" d="M22.24,39h8.9a7.59,7.59,0,0,1,7.59,7.59v3.56a9.28,9.28,0,0,1-9.28,9.28H23.75a9.28,9.28,0,0,1-9.28-9.28V46.73A7.77,7.77,0,0,1,22.24,39Z"/><path class="cls-12" d="M38.73,48.61s5.33-6,10.58,0"/><circle cx="25.96" cy="48.35" r="5.81"/><circle cx="62.41" cy="48.35" r="5.82"/><path class="cls-13" d="M36,67.55a13.72,13.72,0,0,0,17.11-.26"/><path class="cls-11" d="M56.64,39h8.9a7.59,7.59,0,0,1,7.59,7.59v3.56a9.28,9.28,0,0,1-9.28,9.28H58.15a9.28,9.28,0,0,1-9.28-9.28V46.73A7.77,7.77,0,0,1,56.64,39Z"/></g></g></svg>